<svg xmlns="http://www.w3.org/2000/svg" viewBox="0 0 24 24" class="Beecon__Svg-sc-3x6pq4-0 ePKcza beecon"><path d="M12.385 21c1.015 0 1.846-.83 1.846-1.846h-3.693c0 1.015.822 1.846 1.847 1.846zm5.538-5.538v-4.616c0-2.834-1.514-5.206-4.154-5.834v-.627c0-.767-.618-1.385-1.384-1.385C11.618 3 11 3.618 11 4.385v.627c-2.65.628-4.154 3-4.154 5.834v4.616L5 17.308v.923h14.77v-.923l-1.847-1.846zm-3.23-5.724l-2.585 3.139h2.584v1.661h-4.615v-1.661l2.585-3.139h-2.585V8.077h4.615v1.661z" style="fill:gray;" color="#888888" class="Beecon__Path-sc-3x6pq4-1 jRUwgg"/></svg>